<?xml version="1.0" standalone="no"?>
<!DOCTYPE svg PUBLIC "-//W3C//DTD SVG 1.1//EN" "http://www.w3.org/Graphics/SVG/1.1/DTD/svg11.dtd" >
<svg>
<metadata>
Created by FontForge 20090622 at Mon Aug 27 21:46:56 2018
 By deploy user
&#60; info@fontfont.de &#62; Copyright Ole Schaefer, 1999. Published by FontShop International for  FontFont Release 25, Fago Condensed is a trademark of FSI Fonts and Software GmbH.
</metadata>
<defs>
<font id="FagoCo-Medium" horiz-adv-x="470" >
  <font-face 
    font-family="FagoCo"
    font-weight="500"
    font-stretch="normal"
    units-per-em="1000"
    panose-1="0 0 0 0 0 0 0 0 0 0"
    ascent="800"
    descent="-200"
    x-height="530"
    cap-height="700"
    bbox="-120 -200 1084 925"
    underline-thickness="50"
    underline-position="-75"
    unicode-range="U+0020-U+FB02"
  />
<missing-glyph horiz-adv-x="239" 
 />
    <glyph glyph-name=".notdef" horiz-adv-x="239" 
 />
    <glyph glyph-name=".null" horiz-adv-x="0" 
 />
    <glyph glyph-name="nonmarkingreturn" horiz-adv-x="333" 
 />
    <glyph glyph-name="space" unicode=" " horiz-adv-x="239" 
 />
    <glyph glyph-name="exclam" unicode="!" horiz-adv-x="296" 
d="M208 700l-19 -460h-81l-20 460h120zM223 58q0 -32 -21.5 -55t-53.5 -23t-53.5 23t-21.5 55t21.5 54.5t53.5 22.5t53.5 -22.5t21.5 -54.5z" />
    <glyph glyph-name="quotedbl" unicode="&#x22;" horiz-adv-x="431" 
d="M371 700l-22 -280h-83l-22 280h127zM187 700l-22 -280h-83l-22 280h127z" />
    <glyph glyph-name="numbersign" unicode="#" horiz-adv-x="604" 
d="M562 535l-4 -87h-99v-196h100v-87h-100v-165h-94v165h-126v-165h-94v165h-100v87h100v196h-100v87h100v165h94v-165h126v165h94v-165h103zM365 252v196h-126v-196h126z" />
    <glyph glyph-name="dollar" unicode="$" horiz-adv-x="345" 
d="M317 173q0 -136 -107 -165v-123h-75v115q-23 0 -48.5 4.5t-40.5 9.5l-14 4v90q63 -20 98 -20q40 0 61.5 17.5t21.5 67.5q0 24 -10 45.5t-20 33t-31 32.5l-52 53q-72 74 -72 160q0 68 32 108.5t85 53.5v121h75v-116q19 -2 36.5 -6t25.5 -7l8 -3v-86q-45 18 -89 18
q-71 0 -71 -76q0 -23 9 -44.5t18 -32.5t27 -29l49 -52q26 -28 41 -47t29 -53.5t14 -72.5z" />
    <glyph glyph-name="percent" unicode="%" horiz-adv-x="784" 
d="M751 172q0 -182 -145 -182q-67 0 -105.5 40t-38.5 142q0 183 144 183q145 0 145 -183zM578 710l-280 -720h-92l280 720h92zM321 528q0 -183 -144 -183q-67 0 -105.5 40.5t-38.5 142.5q0 182 144 182t144 -182zM661 172q0 70 -12.5 96t-42.5 26q-28 0 -41.5 -27t-13.5 -95
q0 -65 12.5 -92t42.5 -27q29 0 42 26.5t13 92.5zM232 528q0 70 -12.5 95.5t-42.5 25.5q-28 0 -41.5 -26.5t-13.5 -94.5q0 -65 12.5 -92.5t42.5 -27.5q29 0 42 27t13 93z" />
    <glyph glyph-name="ampersand" unicode="&#x26;" horiz-adv-x="622" 
d="M607 0l-126 -10l-57 79q-78 -79 -181 -79q-90 0 -146.5 44t-56.5 144q0 43 16 80t39 59t46.5 37.5t39.5 21.5l16 6q-96 58 -96 159q0 83 45 126t127 43q81 0 124.5 -40t43.5 -117q0 -39 -13 -71t-35 -52.5t-40 -32.5t-37 -20l115 -154q33 73 31 203h99q3 -170 -72 -277z
M339 546q0 91 -67 91q-69 0 -69 -96q0 -70 59 -116q29 11 53 42.5t24 78.5zM377 135l-139 192q-4 -1 -10 -3.5t-22.5 -13.5t-29 -25.5t-22.5 -41.5t-10 -60q0 -115 101 -115q79 0 132 67z" />
    <glyph glyph-name="quotesingle" unicode="'" horiz-adv-x="247" 
d="M187 700l-22 -280h-83l-22 280h127z" />
    <glyph glyph-name="parenleft" unicode="(" horiz-adv-x="272" 
d="M272 -150h-97l-15.5 27t-33.5 71t-42.5 108t-33.5 129.5t-15 144.5q0 68 14.5 142.5t35 132.5t41 105.5t34.5 73.5l15 26h97l-13.5 -25t-29.5 -67.5t-37 -105t-29.5 -131t-13.5 -151.5q0 -73 12.5 -149.5t30.5 -133.5t36.5 -103t31.5 -70z" />
    <glyph glyph-name="parenright" unicode=")" horiz-adv-x="272" 
d="M237 330q0 -69 -14.5 -143.5t-35 -132t-41 -105.5t-34.5 -73l-15 -26h-97l13.5 25t29.5 68t37 105.5t29.5 131t13.5 150.5q0 74 -12.5 150.5t-30.5 133t-36.5 102.5t-31.5 70l-12 24h97l15.5 -27t33.5 -71t42.5 -108t33.5 -130t15 -144z" />
    <glyph glyph-name="asterisk" unicode="*" horiz-adv-x="441" 
d="M401 491l-51 -85l-101 84l22 -130h-100l22 130l-102 -84l-51 85l126 49l-126 48l51 86l102 -85l-22 131h100l-22 -131l101 85l51 -86l-126 -48z" />
    <glyph glyph-name="plus" unicode="+" horiz-adv-x="560" 
d="M497 288h-163v-173h-104v173h-167v99h167v168h104v-168h163v-99z" />
    <glyph glyph-name="comma" unicode="," horiz-adv-x="281" 
d="M219 130l-50 -290h-86l18 290h118z" />
    <glyph glyph-name="hyphen" unicode="-" horiz-adv-x="455" 
d="M392 288h-329v94h329v-94z" />
    <glyph glyph-name="period" unicode="." horiz-adv-x="296" 
d="M223 68q0 -32 -21.5 -55t-53.5 -23t-53.5 23t-21.5 55t21.5 54t53.5 22t53.5 -22t21.5 -54z" />
    <glyph glyph-name="slash" unicode="/" horiz-adv-x="261" 
d="M236 710l-120 -720h-91l120 720h91z" />
    <glyph glyph-name="zero" unicode="0" horiz-adv-x="490" 
d="M447 280q0 -88 -17.5 -148.5t-48.5 -89.5t-63 -40.5t-73 -11.5q-202 0 -202 290q0 87 18.5 148t50.5 90t63.5 40.5t69.5 11.5q29 0 55 -6.5t54 -26t47.5 -50.5t32.5 -84t13 -123zM343 280q0 118 -24.5 167t-73.5 49t-73.5 -49t-24.5 -167q0 -121 25.5 -167.5t72.5 -46.5
q46 0 72 46.5t26 167.5z" />
    <glyph glyph-name="one" unicode="1" horiz-adv-x="292" 
d="M219 0h-104v451l-105 -44v87l130 66h79v-560z" />
    <glyph glyph-name="two" unicode="2" horiz-adv-x="372" 
d="M332 394q0 -54 -25.5 -106.5t-52 -81.5t-70.5 -71l-48 -45h195l-10 -90h-293v90l85 92q66 72 85 103q30 50 30 102q0 50 -17.5 74t-61.5 24q-26 0 -55.5 -5.5t-45.5 -10.5l-16 -5v80q49 26 127 26q173 0 173 -176z" />
    <glyph glyph-name="three" unicode="3" horiz-adv-x="387" 
d="M344 94q0 -113 -83 -169q-81 -56 -241 -60v80q113 6 162 37q58 36 58 115q0 113 -122 113h-51v79h52q105 0 105 108q0 47 -19 68.5t-63 21.5q-24 0 -54.5 -4.5t-49.5 -8.5l-18 -5v80q59 21 125 21q183 0 183 -163q0 -62 -31.5 -101t-80.5 -53q56 -11 92 -49t36 -110z" />
    <glyph glyph-name="four" unicode="4" horiz-adv-x="461" 
d="M454 126l-10 -92h-82v-141l-104 -15v156h-238v82l76 444h117l-86 -434h131l19 244h85v-244h92z" />
    <glyph glyph-name="five" unicode="5" horiz-adv-x="417" 
d="M379 131q0 -141 -99 -207q-83 -55 -223 -60v81q110 7 163 47q55 41 55 132q0 62 -17.5 87t-61.5 25q-22 0 -47 -9t-39 -18l-13 -9l-47 16l10 344h305l-12 -92h-197l-8 -171q35 22 82 22q28 0 52 -8t47 -27t36.5 -58t13.5 -95z" />
    <glyph glyph-name="six" unicode="6" horiz-adv-x="472" 
d="M437 225q0 -69 -17 -117.5t-47 -73t-62 -34.5t-71 -10q-44 0 -77 12.5t-61.5 43t-43.5 90.5t-15 147q0 84 19.5 155.5t59 129.5t107 92.5t156.5 38.5v-81q-101 -6 -158 -56.5t-75 -167.5q5 5 14 12t40 19t67 12q164 0 164 -212zM333 223q0 79 -18 108t-66 29
q-26 0 -51 -9t-37 -17l-12 -9q-2 -36 -2 -55q0 -118 21.5 -161t71.5 -43q48 0 70.5 32.5t22.5 124.5z" />
    <glyph glyph-name="seven" unicode="7" horiz-adv-x="348" 
d="M341 478q-103 -135 -135 -250t-32 -321l-104 -14q0 205 37.5 333t141.5 242h-242v92h334v-82z" />
    <glyph glyph-name="eight" unicode="8" horiz-adv-x="496" 
d="M453 175q0 -94 -58.5 -139.5t-146.5 -45.5q-205 0 -205 181q0 111 123 172q-49 26 -70 52q-35 43 -35 104q0 91 54 131t133 40q78 0 132.5 -40t54.5 -130q0 -95 -111 -155q17 -7 28 -12.5t32.5 -20t34.5 -31.5t23.5 -45t10.5 -61zM331 498q0 51 -20 74.5t-63 23.5
q-83 0 -83 -99q0 -38 16.5 -65.5t41.5 -37.5l39 -16q69 46 69 120zM349 177q0 37 -15 62t-32 35t-47 22l-35 14q-73 -49 -73 -135q0 -110 101 -110t101 112z" />
    <glyph glyph-name="nine" unicode="9" horiz-adv-x="474" 
d="M431 266q0 -194 -85 -294.5t-241 -107.5v82q97 11 154 64.5t67 145.5q-38 -35 -108 -35q-88 0 -135.5 55.5t-47.5 162.5q0 108 52 169.5t143 61.5q101 0 151 -78.5t50 -225.5zM330 232q1 59 -1.5 100.5t-11.5 81.5t-30 60.5t-53 20.5q-52 0 -73.5 -37.5t-21.5 -109.5
q0 -74 20 -112t73 -38q23 0 47.5 8.5t37.5 17.5z" />
    <glyph glyph-name="colon" unicode=":" horiz-adv-x="296" 
d="M223 463q0 -32 -21.5 -54.5t-53.5 -22.5t-53.5 22.5t-21.5 54.5t21.5 54.5t53.5 22.5t53.5 -22.5t21.5 -54.5zM223 68q0 -32 -21.5 -55t-53.5 -23t-53.5 23t-21.5 55t21.5 54t53.5 22t53.5 -22t21.5 -54z" />
    <glyph glyph-name="semicolon" unicode=";" horiz-adv-x="300" 
d="M238 463q0 -32 -21 -54.5t-53 -22.5t-54 22.5t-22 54.5t22 54.5t54 22.5t53 -22.5t21 -54.5zM219 130l-50 -290h-86l18 290h118z" />
    <glyph glyph-name="less" unicode="&#x3c;" horiz-adv-x="535" 
d="M472 80l-409 213v84l409 213v-117l-309 -136l309 -140v-117z" />
    <glyph glyph-name="equal" unicode="=" horiz-adv-x="535" 
d="M472 385h-409v99h409v-99zM472 186h-409v99h409v-99z" />
    <glyph glyph-name="greater" unicode="&#x3e;" horiz-adv-x="535" 
d="M472 293l-409 -213v117l309 140l-309 136v117l409 -213v-84z" />
    <glyph glyph-name="question" unicode="?" horiz-adv-x="333" 
d="M297 572q0 -18 -3.5 -34.5t-7 -27t-13 -25.5t-13.5 -19.5l-17.5 -20t-15.5 -17.5q-15 -18 -23 -30t-15 -36t-7 -55q0 -32 7 -67h-93q-5 38 -5 62q0 44 10 79t20.5 51.5t29.5 39.5q44 53 44 98q0 30 -14.5 41.5t-42.5 11.5q-18 0 -42.5 -5t-39.5 -10l-16 -5v83
q57 24 118 24q139 0 139 -138zM221 58q0 -32 -21 -55t-53 -23t-54 23t-22 55t22 54.5t54 22.5t53 -22.5t21 -54.5z" />
    <glyph glyph-name="at" unicode="@" horiz-adv-x="904" 
d="M861 326q0 -151 -54 -232t-139 -81q-33 0 -58 12t-36.5 29t-19 34t-8.5 29l-1 12q-2 -5 -6 -13t-19 -28.5t-31.5 -36t-43.5 -28.5t-56 -13q-59 0 -100 43t-41 136q0 133 63 221t158 88q30 0 54.5 -10t34.5 -20l9 -9l20 31h73l-46 -279q-9 -52 6 -83.5t48 -31.5
q99 0 99 230q0 150 -75.5 227.5t-209.5 77.5q-154 0 -249.5 -108t-95.5 -297q0 -93 25.5 -163t68.5 -107.5t90.5 -55.5t100.5 -18q49 0 98.5 6t75.5 12l25 6v-85q-86 -21 -199 -21q-75 0 -140 23t-120 71t-87 133t-32 199q0 222 126.5 353t312.5 131q172 0 275.5 -101.5
t103.5 -282.5zM547 398q-25 24 -70 24q-53 0 -91 -65t-38 -164q0 -103 55 -103q28 0 56 30.5t42 61.5l14 30z" />
    <glyph glyph-name="A" unicode="A" 
d="M467 0h-112l-31 156h-178l-31 -156h-112l171 700h121zM309 239l-43 225l-31 179q-18 -111 -31 -179l-44 -225h149z" />
    <glyph glyph-name="B" unicode="B" horiz-adv-x="490" 
d="M447 199q0 -106 -52 -152.5t-171 -46.5h-151v700h151q108 0 155.5 -42.5t47.5 -133.5q0 -133 -115 -160q135 -26 135 -165zM323 520q0 63 -23.5 83t-87.5 20h-35v-226h27q66 0 92.5 28.5t26.5 94.5zM343 199q0 70 -33 97t-106 27h-27v-246h44q65 0 93.5 26.5t28.5 95.5z
" />
    <glyph glyph-name="C" unicode="C" horiz-adv-x="372" 
d="M357 13q-52 -23 -111 -23q-33 0 -58.5 6.5t-54 28.5t-47 59.5t-31 104t-12.5 156.5q0 91 14.5 159t36 106.5t52 62t57 30.5t56.5 7q27 0 51.5 -5.5t35.5 -10.5l11 -6v-85q-45 21 -99 21q-49 0 -80 -64.5t-31 -214.5q0 -267 101 -267q22 0 49 6t43 12l17 6v-89z" />
    <glyph glyph-name="D" unicode="D" horiz-adv-x="500" 
d="M457 355q0 -89 -13 -153.5t-35 -103t-56.5 -61t-70 -30t-83.5 -7.5h-126v700h124q38 0 67.5 -4.5t61 -16.5t53.5 -36.5t40.5 -61.5t28 -94t9.5 -132zM353 355q0 107 -18.5 165.5t-47 76t-76.5 17.5h-34v-528h28q54 0 84 19t47 78.5t17 171.5z" />
    <glyph glyph-name="E" unicode="E" horiz-adv-x="404" 
d="M379 700l-5 -90h-197v-195h177v-83h-177v-242h200v-90h-304v700h306z" />
    <glyph glyph-name="F" unicode="F" horiz-adv-x="387" 
d="M377 700l-13 -92h-187v-193h177v-83h-177v-332h-104v700h304z" />
    <glyph glyph-name="G" unicode="G" horiz-adv-x="525" 
d="M457 30q-94 -40 -185 -40q-23 0 -39 1t-42 8.5t-44 20.5t-39 39.5t-34 63t-22 93.5t-9 129q0 91 17.5 159.5t43 106.5t62 61.5t67 30.5t65.5 7q40 0 74 -8t48 -16l14 -7v-84q-58 29 -136 29q-151 0 -151 -279q0 -72 8.5 -124t20.5 -79.5t30.5 -43t33.5 -19.5t35 -4
q17 0 36.5 3.5t30.5 6.5l11 3v245h-85l-5 82h194v-385z" />
    <glyph glyph-name="H" unicode="H" horiz-adv-x="540" 
d="M467 0h-104v332h-186v-332h-104v700h104v-285h186v285h104v-700z" />
    <glyph glyph-name="I" unicode="I" horiz-adv-x="252" 
d="M179 0h-106v700h106v-700z" />
    <glyph glyph-name="J" unicode="J" horiz-adv-x="292" 
d="M219 120q0 -74 -35 -102t-94 -28q-21 0 -43.5 4t-34.5 8l-12 3v83q49 -12 68 -12q24 0 35.5 12t11.5 43v569h104v-580z" />
    <glyph glyph-name="K" unicode="K" horiz-adv-x="472" 
d="M467 0l-119 -10l-160 387l147 323h122l-168 -320zM177 0h-104v700h104v-700z" />
    <glyph glyph-name="L" unicode="L" horiz-adv-x="342" 
d="M334 91l-12 -91h-249v700h104v-609h157z" />
    <glyph glyph-name="M" unicode="M" horiz-adv-x="680" 
d="M612 0h-103l-7 330q-1 33 0.5 84t3.5 86l2 34q-36 -105 -59 -156l-109 -246l-112 249l-58 153l7 -207l-6 -327h-103l24 700h91l157 -387l157 387h91z" />
    <glyph glyph-name="N" unicode="N" horiz-adv-x="530" 
d="M457 0h-91l-129 314q-16 40 -35.5 95t-30.5 91l-11 35q17 -152 17 -234v-301h-104v700h99l126 -307q18 -43 36 -98t27 -89l9 -34q-17 154 -17 244v284h104v-700z" />
    <glyph glyph-name="O" unicode="O" horiz-adv-x="484" 
d="M449 350q0 -92 -12.5 -159.5t-32 -105t-48.5 -60t-55 -29t-59 -6.5t-58.5 6t-55 28t-48.5 59.5t-32 105.5t-13 161t13 161t32.5 105.5t49 59.5t55 28t57.5 6t58.5 -7t55 -29.5t48 -60t32.5 -105t13 -158.5zM345 350q0 156 -26 219.5t-77 63.5q-33 0 -54 -21.5t-35 -86
t-14 -175.5q0 -283 103 -283t103 283z" />
    <glyph glyph-name="P" unicode="P" horiz-adv-x="452" 
d="M427 460q0 -124 -62 -179t-188 -59v-222h-104v700h131q122 0 172.5 -56t50.5 -184zM323 460q0 96 -25.5 127t-89.5 31h-31v-322q87 4 116.5 41.5t29.5 122.5z" />
    <glyph glyph-name="Q" unicode="Q" horiz-adv-x="484" 
d="M449 350q0 -100 -14 -171t-39.5 -109t-53.5 -55.5t-63 -22.5l93 -182h-127l-40 182q-35 5 -63 22.5t-53.5 55t-39.5 108.5t-14 172q0 93 13 161t32.5 105.5t49 59.5t55 28t57.5 6t58.5 -7t55 -29.5t48 -60t32.5 -105t13 -158.5zM345 350q0 155 -26 219t-77 64
q-33 0 -54 -21.5t-35 -86t-14 -175.5q0 -161 27.5 -223.5t75.5 -62.5q30 0 51.5 21.5t36.5 87.5t15 177z" />
    <glyph glyph-name="R" unicode="R" horiz-adv-x="480" 
d="M447 0h-114l-36 179q-19 96 -59 121l-61 -5v-295h-104v700h151q106 0 159.5 -43t53.5 -153q0 -134 -110 -181q47 -26 73 -132zM333 504q0 70 -25 91.5t-91 21.5h-40v-247q86 4 121 29t35 105z" />
    <glyph glyph-name="S" unicode="S" horiz-adv-x="368" 
d="M338 183q0 -193 -197 -193q-26 0 -53.5 4.5t-42.5 9.5l-15 4v91q64 -20 106 -20q98 0 98 98q0 30 -10 54t-21.5 37t-35.5 35l-58 53q-75 69 -75 167t55 142.5t129 44.5q26 0 52 -4.5t40 -9.5l13 -4v-88q-52 20 -100 20q-39 0 -63 -23.5t-24 -69.5q0 -38 14.5 -61.5
t43.5 -49.5l53 -47q42 -38 66.5 -81.5t24.5 -108.5z" />
    <glyph glyph-name="T" unicode="T" horiz-adv-x="369" 
d="M394 700l-12 -92h-133v-608h-104v608h-145v92h394z" />
    <glyph glyph-name="U" unicode="U" horiz-adv-x="506" 
d="M438 180q0 -100 -46 -145t-139 -45q-96 0 -140.5 43.5t-44.5 146.5v520h104v-532q0 -49 18 -71.5t63 -22.5q81 0 81 94v532h104v-520z" />
    <glyph glyph-name="V" unicode="V" horiz-adv-x="419" 
d="M429 700l-152 -700h-134l-153 700h119l71 -442l30 -214q19 142 30 214l70 442h119z" />
    <glyph glyph-name="W" unicode="W" horiz-adv-x="717" 
d="M712 700l-109 -700h-142l-71 439l-32 213q-19 -137 -31 -213l-71 -439h-142l-109 700h115l47 -440l18 -213q17 148 27 213l70 440h153l70 -440l26 -213q13 146 20 213l46 440h115z" />
    <glyph glyph-name="X" unicode="X" horiz-adv-x="424" 
d="M434 0h-126l-96 295l-97 -295h-125l155 369l-145 331h127l85 -265l85 265h127l-144 -331z" />
    <glyph glyph-name="Y" unicode="Y" horiz-adv-x="424" 
d="M434 700l-170 -412v-288h-104v288l-170 412h123l99 -320l99 320h123z" />
    <glyph glyph-name="Z" unicode="Z" horiz-adv-x="387" 
d="M354 86l-6 -86h-310v78l210 536h-210v86h314v-78l-210 -536h212z" />
    <glyph glyph-name="bracketleft" unicode="[" horiz-adv-x="302" 
d="M297 -150h-224v960h224v-90h-120v-780h120v-90z" />
    <glyph glyph-name="backslash" unicode="\" horiz-adv-x="261" 
d="M236 -10h-91l-120 720h91z" />
    <glyph glyph-name="bracketright" unicode="]" horiz-adv-x="302" 
d="M229 -150h-224v90h120v780h-120v90h224v-960z" />
    <glyph glyph-name="asciicircum" unicode="^" horiz-adv-x="446" 
d="M416 420h-112l-81 260l-81 -260h-112l142 350h102z" />
    <glyph glyph-name="underscore" unicode="_" horiz-adv-x="490" 
d="M490 -200h-490v95h490v-95z" />
    <glyph glyph-name="grave" unicode="`" horiz-adv-x="290" 
d="M265 620h-101l-139 155h132z" />
    <glyph glyph-name="a" unicode="a" horiz-adv-x="450" 
d="M382 0h-86l-15 47q-4 -6 -12.5 -15.5t-35 -25.5t-53.5 -16q-142 0 -142 171q0 41 12.5 73t30.5 50t43 29t45.5 14.5t41.5 3.5h67v65q0 35 -15.5 48t-52.5 13q-24 0 -57 -7t-54 -14l-21 -7v83q72 28 154 28q31 0 54.5 -5.5t47 -20t36 -45.5t12.5 -76v-393zM278 111v156
l-46 -1q-47 -1 -68.5 -22t-21.5 -80q0 -57 15 -76t45 -19q18 0 37 10.5t29 20.5z" />
    <glyph glyph-name="b" unicode="b" horiz-adv-x="490" 
d="M447 270q0 -74 -14.5 -128t-35 -82.5t-52 -45t-56 -20.5t-56.5 -4q-30 0 -70 6t-65 12l-25 5v707h104v-222q4 5 12.5 12t36.5 18.5t58 11.5q23 0 42 -4t43 -20t40 -44t27 -79.5t11 -122.5zM343 270q0 65 -6 104.5t-19.5 56.5t-25 21t-32.5 4t-41.5 -7t-30.5 -15l-11 -7
v-351q39 -7 64 -7q19 0 34.5 6.5t32 25.5t26 62t9.5 107z" />
    <glyph glyph-name="c" unicode="c" horiz-adv-x="347" 
d="M332 10q-49 -20 -104 -20q-185 0 -185 272q0 73 15 127t36 82t50.5 44.5t51.5 20.5t47 4q24 0 46.5 -5t32.5 -11l10 -5v-85q-47 21 -91 21q-94 0 -94 -193q0 -185 86 -185q22 0 46.5 5.5t38.5 11.5l14 5v-89z" />
    <glyph glyph-name="d" unicode="d" horiz-adv-x="500" 
d="M427 0h-80l-13 44q-5 -6 -14 -15t-40 -24t-65 -15q-23 0 -42.5 4t-45 20.5t-43 44.5t-29.5 81t-12 125q0 71 15 124.5t36 81t49.5 44.5t49 21t42.5 4q57 0 88 -35v215h104v-720zM323 108v322q-31 26 -74 26q-21 0 -37 -6.5t-32 -25.5t-24.5 -59t-8.5 -100q0 -62 8 -103
t22.5 -59t28.5 -24t33 -6q20 0 41 8.5t32 17.5z" />
    <glyph glyph-name="e" unicode="e" horiz-adv-x="435" 
d="M397 265l-1 -33h-250q0 -95 27 -125.5t72 -30.5q19 0 49.5 5t51.5 10l20 5v-86q-61 -20 -121 -20q-33 0 -57.5 4.5t-53.5 20.5t-47.5 44t-31 80t-12.5 123q0 278 188 278q174 0 166 -275zM296 299q0 97 -15.5 133t-49.5 36q-43 0 -63 -38t-21 -131h149z" />
    <glyph glyph-name="f" unicode="f" horiz-adv-x="284" 
d="M319 634q-53 15 -89 15q-54 0 -54 -62v-57h95l-12 -75h-83v-455h-104v455h-64v75h64v54q0 78 40.5 112t105.5 34q26 0 51 -4t37 -8l13 -5v-79z" />
    <glyph glyph-name="g" unicode="g" horiz-adv-x="446" 
d="M438 458h-84q32 -41 32 -97q0 -183 -169 -183q-16 0 -30.5 2t-20.5 4l-6 3q-26 -17 -26 -39q0 -34 50 -39l91 -9q76 -7 114.5 -37t38.5 -101q0 -88 -54 -125t-169 -37q-175 0 -175 126q0 64 63 117q-43 25 -43 79q0 56 59 92q-62 50 -62 148q0 93 47.5 135.5t122.5 42.5
q17 0 39.5 -5t35.5 -5h146v-72zM284 362q0 60 -15 85t-52 25q-34 0 -50.5 -25.5t-16.5 -84.5q0 -63 15.5 -89t51.5 -26q38 0 52.5 25.5t14.5 89.5zM329 -48q0 35 -17.5 48t-56.5 16l-76 7l-21 3q-32 -41 -32 -85q0 -35 21 -53t58 -18q66 0 95 19t29 63z" />
    <glyph glyph-name="h" unicode="h" horiz-adv-x="515" 
d="M447 0h-104v386q0 36 -10 49.5t-38 13.5q-24 0 -53.5 -10t-47.5 -20l-17 -10v-409h-104v720h104v-242q7 7 20 17.5t51.5 27.5t74.5 17q124 0 124 -138v-402z" />
    <glyph glyph-name="i" unicode="i" horiz-adv-x="239" 
d="M183 675q0 -27 -18 -46t-45 -19t-45.5 19t-18.5 46t18.5 45.5t45.5 18.5t45 -18.5t18 -45.5zM172 0h-104v530h104v-530z" />
    <glyph glyph-name="j" unicode="j" horiz-adv-x="239" 
d="M183 675q0 -27 -18 -46t-45 -19t-45.5 19t-18.5 46t18.5 45.5t45.5 18.5t45 -18.5t18 -45.5zM172 -70q0 -130 -120 -130q-20 0 -43.5 4t-36.5 8l-14 3v84q46 -11 70 -11q40 0 40 46v596h104v-600z" />
    <glyph glyph-name="k" unicode="k" horiz-adv-x="442" 
d="M439 0l-118 -10l-132 315l106 225h124l-127 -221zM177 0h-104v720h104v-720z" />
    <glyph glyph-name="l" unicode="l" horiz-adv-x="240" 
d="M172 0h-104v720h104v-720z" />
    <glyph glyph-name="m" unicode="m" horiz-adv-x="730" 
d="M662 0h-104v401q0 28 -9 38.5t-33 10.5q-19 0 -43.5 -9t-38.5 -19l-15 -9v-413h-104v401q0 28 -8.5 38.5t-32.5 10.5q-19 0 -43.5 -9t-38.5 -19l-15 -9v-413h-104v530h78l23 -49q7 7 19 16.5t46 26t64 16.5q82 0 107 -65q72 65 135 65t90 -33t27 -100v-407z" />
    <glyph glyph-name="n" unicode="n" horiz-adv-x="515" 
d="M447 0h-104v386q0 35 -10 49t-38 14q-24 0 -53.5 -9.5t-47.5 -19.5l-17 -9v-411h-104v530h79l22 -50q8 7 21.5 17t52.5 26.5t75 16.5q124 0 124 -138v-402z" />
    <glyph glyph-name="o" unicode="o" horiz-adv-x="468" 
d="M433 265q0 -82 -16.5 -138.5t-46 -85t-62 -40t-74.5 -11.5t-75 12t-62.5 40.5t-45.5 85t-16 137.5q0 275 199 275q41 0 74 -11.5t62.5 -40t46 -85t16.5 -138.5zM329 265q0 118 -24 159t-71 41q-48 0 -71.5 -43t-23.5 -157q0 -199 95 -199t95 199z" />
    <glyph glyph-name="p" unicode="p" horiz-adv-x="490" 
d="M447 269q0 -279 -188 -279q-18 0 -38.5 4t-32.5 8l-11 5v-197h-104v720h80l16 -43q5 6 14 15t39 23.5t62 14.5q21 0 38.5 -3.5t37 -13t34.5 -29t27.5 -48t19 -74t6.5 -103.5zM343 269q0 80 -11.5 123t-27.5 54t-44 11q-22 0 -43 -9.5t-31 -18.5l-9 -9v-338q38 -13 66 -13
q16 0 28 3.5t26.5 16t23.5 33t15.5 58.5t6.5 89z" />
    <glyph glyph-name="q" unicode="q" horiz-adv-x="500" 
d="M427 -190h-104v209q-41 -29 -98 -29q-25 0 -45.5 4t-47 20.5t-45 45t-31.5 82t-13 126.5q0 83 18 141t48.5 84.5t58 36.5t57.5 10q33 0 60 -13t37 -26l11 -13l17 42h77v-720zM323 95v324q-35 36 -78 36q-48 0 -73 -38.5t-25 -148.5q0 -62 7.5 -102.5t22 -60.5t30 -27
t38.5 -7q15 0 34.5 6t31.5 12z" />
    <glyph glyph-name="r" unicode="r" horiz-adv-x="310" 
d="M302 429q-26 10 -57 10q-18 0 -35 -7.5t-25 -14.5l-8 -7v-410h-104v530h80l16 -55q1 3 3 7t9.5 15.5t16.5 20t24.5 15.5t33.5 7q12 0 23.5 -2t16.5 -4l6 -2v-103z" />
    <glyph glyph-name="s" unicode="s" horiz-adv-x="338" 
d="M308 149q0 -159 -171 -159q-22 0 -48 5t-41 9l-14 5v88q66 -22 98 -22q76 0 76 70q0 28 -12.5 44t-39.5 33l-37 24q-84 54 -84 141q0 75 45 114t116 39q25 0 49.5 -5t36.5 -10l11 -5v-83q-45 19 -94 19q-30 0 -47.5 -16.5t-17.5 -46.5q0 -19 8 -33t16.5 -21t28.5 -19
l43 -28q78 -50 78 -143z" />
    <glyph glyph-name="t" unicode="t" horiz-adv-x="294" 
d="M286 5q-47 -15 -92 -15q-24 0 -43 4.5t-38 16.5t-30 38t-11 64v342h-64v75h64l9 120l95 40v-160h95l-12 -75h-83v-336q0 -26 10 -35t31 -9l69 12v-82z" />
    <glyph glyph-name="u" unicode="u" horiz-adv-x="505" 
d="M432 0h-85l-13 46q-6 -6 -17 -15.5t-43.5 -25t-63.5 -15.5q-65 0 -103.5 33t-38.5 122v385h104v-380q0 -40 13 -55t41 -15q22 0 47.5 10t40.5 20l14 11v409h104v-530z" />
    <glyph glyph-name="v" unicode="v" horiz-adv-x="424" 
d="M424 530l-150 -530h-124l-150 530h116l66 -311l30 -172q16 105 30 172l66 311h116z" />
    <glyph glyph-name="w" unicode="w" horiz-adv-x="712" 
d="M694 530l-111 -530h-132l-57 268l-38 211q-24 -133 -40 -210l-57 -269h-131l-110 530h116l37 -286l22 -204q18 132 34 204l62 286h133l62 -286q8 -36 16 -87t12 -84l5 -33q15 134 24 204l38 286h115z" />
    <glyph glyph-name="x" unicode="x" horiz-adv-x="444" 
d="M444 0h-129l-93 216l-92 -216h-130l156 282l-146 248h131l81 -191l82 191h130l-146 -248z" />
    <glyph glyph-name="y" unicode="y" horiz-adv-x="409" 
d="M409 530l-156 -606q-18 -71 -53.5 -97.5t-93.5 -26.5q-20 0 -42.5 4t-35.5 8l-12 3v82q57 -13 81 -13q26 0 41 11.5t23 43.5l13 55l-174 536h124l93 -411l78 411h114z" />
    <glyph glyph-name="z" unicode="z" horiz-adv-x="381" 
d="M348 84l-6 -84h-304v72l197 374h-197v84h309v-72l-198 -374h199z" />
    <glyph glyph-name="braceleft" unicode="{" horiz-adv-x="318" 
d="M313 -150h-21q-101 0 -149.5 48t-48.5 155v129q0 44 -21 70t-42 30l-21 4v90q3 0 9 1.5t20.5 8t25.5 16.5t20 30.5t9 47.5v127q0 107 48.5 155t149.5 48h21v-87h-12q-57 0 -80 -25t-23 -89v-124q0 -63 -30 -102t-77 -53q48 -12 77.5 -51t29.5 -102v-126q0 -61 23.5 -87.5
t79.5 -26.5h12v-87z" />
    <glyph glyph-name="bar" unicode="|" horiz-adv-x="250" 
d="M177 -110h-104v920h104v-920z" />
    <glyph glyph-name="braceright" unicode="}" horiz-adv-x="317" 
d="M307 286q-3 0 -9 -1t-20 -7t-25 -16t-20 -31t-9 -49v-129q0 -107 -48.5 -155t-149.5 -48h-21v87h12q56 0 79.5 26.5t23.5 87.5v126q0 63 29.5 102t77.5 51q-47 14 -77 53t-30 102v124q0 64 -23 89t-80 25h-12v87h21q101 0 149.5 -48t48.5 -155v-127q0 -27 8.5 -47.5
t21 -30.5t24.5 -16.5t20 -7.5l9 -2v-90z" />
    <glyph glyph-name="asciitilde" unicode="~" horiz-adv-x="625" 
d="M562 293q-57 -41 -128 -41q-42 0 -119 33.5t-111 33.5q-32 0 -67 -10.5t-55 -20.5l-19 -10v99q67 42 142 42q51 0 125.5 -34t105.5 -34q24 0 55.5 10t50.5 20l20 10v-98z" />
    <glyph glyph-name="exclamdown" unicode="&#xa1;" horiz-adv-x="296" 
d="M223 462q0 -32 -22 -54t-54 -22t-53 22t-21 54t21 55t53 23t54 -23t22 -55zM207 -180h-120l20 460h81z" />
    <glyph glyph-name="cent" unicode="&#xa2;" horiz-adv-x="352" 
d="M332 10q-31 -12 -72 -17v-103h-75v104q-142 28 -142 268q0 232 142 271v107h75v-101q20 -2 38 -7t26 -9l8 -4v-85q-47 21 -91 21q-94 0 -94 -193q0 -99 25 -142t61 -43q22 0 46.5 5.5t38.5 11.5l14 5v-89z" />
    <glyph glyph-name="sterling" unicode="&#xa3;" horiz-adv-x="433" 
d="M403 0h-383v88h90v235h-85v83h85v84q0 95 48 137.5t125 42.5q32 0 62 -6t44 -12l14 -7v-82q-61 22 -117 22q-39 0 -56.5 -21.5t-17.5 -73.5v-84h143l-12 -83h-131v-235h191v-88z" />
    <glyph glyph-name="currency" unicode="&#xa4;" horiz-adv-x="482" 
d="M462 18q-58 -28 -132 -28q-38 0 -68.5 7.5t-64 28.5t-57.5 66.5t-35 113.5h-85l10 82h64q0 1 -0.5 17t-0.5 25q0 12 1.5 31.5t1.5 20.5h-75l10 82h79q11 62 37.5 105.5t62 64t66.5 28.5t64 8q32 0 62.5 -6t45.5 -12l14 -7v-85q-59 24 -122 24q-48 0 -84 -28.5t-47 -91.5
h191l-8 -82h-192q0 -1 -1.5 -20.5t-1.5 -31.5q0 -9 0.5 -25t0.5 -17h201l-9 -82h-184q22 -130 129 -130q25 0 57 7t51 14l19 7v-86z" />
    <glyph glyph-name="yen" unicode="&#xa5;" horiz-adv-x="424" 
d="M422 660l-122 -283h87v-93h-123v-77h123v-93h-123v-114h-104v114h-123v93h123v77h-123v93h87l-122 283h123l87 -282l87 282h123z" />
    <glyph glyph-name="brokenbar" unicode="&#xa6;" horiz-adv-x="250" 
d="M177 420h-104v390h104v-390zM177 -110h-104v390h104v-390z" />
    <glyph glyph-name="section" unicode="&#xa7;" horiz-adv-x="424" 
d="M384 284q0 -72 -82 -119q64 -45 64 -117q0 -75 -49.5 -112.5t-131.5 -37.5q-27 0 -60 5t-53 11l-19 5v86q81 -26 129 -26q38 0 60 17t22 48q0 29 -15 45t-47 33l-47 25q-26 14 -41 23.5t-35 26.5t-29.5 39.5t-9.5 50.5q0 61 83 113q-65 43 -65 120t49 113.5t132 36.5
q32 0 65 -7.5t50 -14.5l17 -8v-82q-71 30 -129 30q-82 0 -82 -65q0 -39 45 -67q2 -1 27 -15l41 -23q36 -20 55 -33.5t37.5 -40.5t18.5 -60zM285 270q0 25 -14.5 39.5t-40.5 29.5l-49 27q-41 -32 -41 -68q0 -37 58 -69l53 -29q34 32 34 70z" />
    <glyph glyph-name="dieresis" unicode="&#xa8;" horiz-adv-x="351" 
d="M326 682q0 -26 -18 -44t-43 -18t-43 18t-18 44t18 44t43 18t43 -18t18 -44zM148 682q0 -26 -18 -44t-44 -18q-25 0 -43 18t-18 44t18 44t43 18q26 0 44 -18t18 -44z" />
    <glyph glyph-name="copyright" unicode="&#xa9;" horiz-adv-x="725" 
d="M682 315q0 -167 -88 -263.5t-231 -96.5q-146 0 -233 94.5t-87 265.5q0 166 89 263t231 97q144 0 231.5 -97t87.5 -263zM597 315q0 135 -60.5 209t-173.5 74t-173.5 -73.5t-60.5 -209.5t60.5 -209.5t173.5 -73.5q114 0 174 73.5t60 209.5zM468 136q-40 -18 -90 -18
q-29 0 -54 7.5t-51 27t-41 61.5t-15 103q0 49 12.5 86.5t30.5 57.5t42 33t43.5 16.5t39.5 3.5q22 0 42.5 -5t30.5 -9l10 -5v-65q-44 17 -83 17q-36 0 -57.5 -27.5t-21.5 -102.5q0 -128 72 -128q17 0 39.5 4t36.5 8l14 4v-69z" />
    <glyph glyph-name="ordfeminine" unicode="&#xaa;" horiz-adv-x="347" 
d="M307 259h-82l-12 35q-33 -43 -76 -43q-23 0 -41 5t-36.5 19t-29 44t-10.5 75q0 43 15 73t39 43.5t46 19t45 5.5h46v48q0 31 -9 41t-38 10q-20 0 -48 -5.5t-46 -10.5l-17 -6v76q61 22 129 22q55 0 90 -25.5t35 -97.5v-328zM307 0h-287v94h287v-94zM211 356v120l-29 -1
q-32 -1 -48.5 -16t-16.5 -63q0 -40 10 -56t32 -16q13 0 26 8t19 16z" />
    <glyph glyph-name="guillemotleft" unicode="&#xab;" 
d="M425 91l-185 221v46l185 221v-154l-88 -88l88 -92v-154zM220 91l-185 221v46l185 221v-154l-88 -88l88 -92v-154z" />
    <glyph glyph-name="logicalnot" unicode="&#xac;" horiz-adv-x="605" 
d="M542 115h-99v175h-380v100h479v-275z" />
    <glyph glyph-name="registered" unicode="&#xae;" horiz-adv-x="725" 
d="M682 315q0 -167 -88 -263.5t-231 -96.5q-146 0 -233 94.5t-87 265.5q0 166 89 263t231 97q144 0 231.5 -97t87.5 -263zM597 315q0 135 -60.5 209t-173.5 74t-173.5 -73.5t-60.5 -209.5t60.5 -209.5t173.5 -73.5q114 0 174 73.5t60 209.5zM506 137h-92l-15 60
q-17 66 -41 87l-33 -3v-144h-79v370h100q33 0 56.5 -3.5t46.5 -14t35 -33.5t12 -58q0 -65 -72 -96q34 -28 55 -88zM415 398q0 33 -15 43t-57 10h-18v-119q55 3 72.5 17t17.5 49z" />
    <glyph glyph-name="macron" unicode="&#xaf;" horiz-adv-x="335" 
d="M310 653h-285v99h285v-99z" />
    <glyph glyph-name="degree" unicode="&#xb0;" horiz-adv-x="383" 
d="M348 535q0 -93 -42.5 -136.5t-113.5 -43.5t-114 42t-43 138q0 93 44.5 136.5t112.5 43.5q156 0 156 -180zM254 535q0 62 -14 89t-48 27q-63 0 -63 -116q0 -59 15 -86t48 -27q62 0 62 113z" />
    <glyph glyph-name="plusminus" unicode="&#xb1;" horiz-adv-x="560" 
d="M497 296h-163v-143h-104v143h-167v99h167v167h104v-167h163v-99zM497 -7h-434v97h434v-97z" />
    <glyph glyph-name="twosuperior" unicode="&#xb2;" horiz-adv-x="294" 
d="M261 348l-8 -70h-217v62l87 114q51 66 51 126q0 35 -12 49t-41 14q-14 0 -35 -4.5t-35 -8.5l-14 -4v65q39 19 90 19q129 0 129 -127q0 -37 -12.5 -71.5t-26.5 -54.5t-36 -47l-51 -62h131z" />
    <glyph glyph-name="threesuperior" unicode="&#xb3;" horiz-adv-x="294" 
d="M260 404q0 -74 -39 -105t-99 -31q-19 0 -40 3t-33 7l-12 3v65q53 -13 84 -13q30 0 43.5 15.5t13.5 56.5q0 38 -17.5 52.5t-51.5 14.5h-45v62h45q59 0 59 63q0 28 -11 38t-33 10q-16 0 -37.5 -4t-35.5 -8l-14 -4v64q43 17 90 17q124 0 124 -108q0 -71 -64 -95
q73 -21 73 -103z" />
    <glyph glyph-name="acute" unicode="&#xb4;" horiz-adv-x="290" 
d="M265 775l-139 -155h-101l108 155h132z" />
    <glyph glyph-name="mu" unicode="&#xb5;" horiz-adv-x="510" 
d="M437 0h-85l-13 46q-62 -56 -124 -56q-26 0 -38 4v-184h-104v720h104v-380q0 -40 13 -55t41 -15q43 0 102 41v409h104v-530z" />
    <glyph glyph-name="paragraph" unicode="&#xb6;" horiz-adv-x="561" 
d="M488 0h-94v700h94v-700zM327 0h-94v222q-93 0 -144 54.5t-51 183.5q0 136 56.5 188t160.5 52h72v-700zM233 303v307q-51 0 -71 -30.5t-20 -119.5q0 -85 20 -121t71 -36z" />
    <glyph glyph-name="periodcentered" unicode="&#xb7;" horiz-adv-x="296" 
d="M223 378q0 -32 -21.5 -54.5t-53.5 -22.5t-53.5 22.5t-21.5 54.5t21.5 54.5t53.5 22.5t53.5 -22.5t21.5 -54.5z" />
    <glyph glyph-name="cedilla" unicode="&#xb8;" horiz-adv-x="253" 
d="M228 -90q0 -105 -115 -105q-18 0 -40 4.5t-35 8.5l-13 5v77q48 -17 74 -17q38 0 38 40q0 18 -7.5 39.5t-14.5 34.5l-7 13h65q6 -4 15 -12t24.5 -34t15.5 -54z" />
    <glyph glyph-name="onesuperior" unicode="&#xb9;" horiz-adv-x="294" 
d="M214 278h-82v335l-84 -35v69l106 53h60v-422z" />
    <glyph glyph-name="ordmasculine" unicode="&#xba;" horiz-adv-x="399" 
d="M366 479q0 -68 -13.5 -115t-38 -71t-52 -34t-62.5 -10q-167 0 -167 230q0 125 47 178t120 53q166 0 166 -231zM366 0h-333v94h333v-94zM269 479q0 97 -16 127.5t-53 30.5q-36 0 -53 -33t-17 -125q0 -90 18.5 -123t51.5 -33t51 32t18 124z" />
    <glyph glyph-name="guillemotright" unicode="&#xbb;" 
d="M435 312l-185 -221v154l88 92l-88 88v154l185 -221v-46zM230 312l-185 -221v154l88 92l-88 88v154l185 -221v-46z" />
    <glyph glyph-name="onequarter" unicode="&#xbc;" horiz-adv-x="797" 
d="M797 159l-8 -71h-50v-88h-83v88h-146v57l50 277h90l-55 -263h62l11 143h71v-143h58zM623 810l-365 -920h-84l365 920h84zM214 278h-82v335l-84 -35v69l106 53h60v-422z" />
    <glyph glyph-name="onehalf" unicode="&#xbd;" horiz-adv-x="797" 
d="M764 70l-8 -70h-217v62l87 114q51 66 51 126q0 35 -12 49t-41 14q-14 0 -35 -4.5t-35 -8.5l-14 -4v65q39 19 90 19q129 0 129 -127q0 -37 -12.5 -71.5t-26.5 -54.5t-36 -47l-51 -62h131zM623 810l-365 -920h-84l365 920h84zM214 278h-82v335l-84 -35v69l106 53h60v-422z
" />
    <glyph glyph-name="threequarters" unicode="&#xbe;" horiz-adv-x="797" 
d="M797 159l-8 -71h-50v-88h-83v88h-146v57l50 277h90l-55 -263h62l11 143h71v-143h58zM623 810l-365 -920h-84l365 920h84zM260 404q0 -74 -39 -105t-99 -31q-19 0 -40 3t-33 7l-12 3v65q53 -13 84 -13q30 0 43.5 15.5t13.5 56.5q0 38 -17.5 52.5t-51.5 14.5h-45v62h45
q59 0 59 63q0 28 -11 38t-33 10q-16 0 -37.5 -4t-35.5 -8l-14 -4v64q43 17 90 17q124 0 124 -108q0 -71 -64 -95q73 -21 73 -103z" />
    <glyph glyph-name="questiondown" unicode="&#xbf;" horiz-adv-x="333" 
d="M262 462q0 -32 -22 -54t-54 -22t-53.5 22t-21.5 54t21.5 55t53.5 23t54 -23t22 -55zM293 -166q-58 -24 -119 -24q-138 0 -138 138q0 18 3.5 35t6.5 26.5t13.5 25.5l12.5 19t18 20l15 18q15 18 23 30t15 36t7 55q0 32 -7 67h94q5 -38 5 -62q0 -44 -10 -79t-20.5 -51.5
t-29.5 -39.5q-44 -53 -44 -98q0 -30 14.5 -41.5t42.5 -11.5q18 0 42.5 5t40.5 10l15 5v-83z" />
    <glyph glyph-name="Agrave" unicode="&#xc0;" 
d="M283 750h-101l-139 125h137zM467 0h-112l-31 156h-178l-31 -156h-112l171 700h121zM309 239l-43 225l-31 179q-18 -111 -31 -179l-44 -225h149z" />
    <glyph glyph-name="Aacute" unicode="&#xc1;" 
d="M425 875l-139 -125h-101l103 125h137zM467 0h-112l-31 156h-178l-31 -156h-112l171 700h121zM309 239l-43 225l-31 179q-18 -111 -31 -179l-44 -225h149z" />
    <glyph glyph-name="Acircumflex" unicode="&#xc2;" 
d="M418 750h-121l-61 62l-62 -62h-121l138 125h89zM467 0h-112l-31 156h-178l-31 -156h-112l171 700h121zM309 239l-43 225l-31 179q-18 -111 -31 -179l-44 -225h149z" />
    <glyph glyph-name="Atilde" unicode="&#xc3;" 
d="M390 783q-41 -26 -73 -26q-31 0 -80.5 20.5t-76.5 20.5q-34 0 -80 -30v94q48 28 87 28q33 0 84 -19.5t71 -19.5q26 0 68 25v-93zM467 0h-112l-31 156h-178l-31 -156h-112l171 700h121zM309 239l-43 225l-31 179q-18 -111 -31 -179l-44 -225h149z" />
    <glyph glyph-name="Adieresis" unicode="&#xc4;" 
d="M396 812q0 -26 -18 -44t-43 -18t-43 18t-18 44t18 44t43 18t43 -18t18 -44zM198 812q0 -26 -18 -44t-44 -18q-25 0 -43 18t-18 44t18 44t43 18q26 0 44 -18t18 -44zM467 0h-112l-31 156h-178l-31 -156h-112l171 700h121zM309 239l-43 225l-31 179q-18 -111 -31 -179
l-44 -225h149z" />
    <glyph glyph-name="Aring" unicode="&#xc5;" 
d="M362 813q0 -54 -34 -83t-92 -29t-92.5 28.5t-34.5 83.5t34 83.5t93 28.5q56 0 91 -29t35 -83zM467 0h-112l-31 156h-178l-31 -156h-112l171 700h121zM287 813q0 54 -51 54t-51 -54t51 -54t51 54zM309 239l-43 225l-31 179q-18 -111 -31 -179l-44 -225h149z" />
    <glyph glyph-name="AE" unicode="&#xc6;" horiz-adv-x="581" 
d="M556 700l-5 -91h-172v-194h162v-83h-162v-241h175v-91h-279v156h-120l-41 -156h-116l219 700h339zM275 239v391q-26 -109 -41 -166l-59 -225h100z" />
    <glyph glyph-name="Ccedilla" unicode="&#xc7;" horiz-adv-x="372" 
d="M357 13q-42 -18 -93 -22q34 -36 34 -81q0 -105 -115 -105q-18 0 -40 4.5t-35 8.5l-13 5v77q48 -17 74 -17q38 0 38 40q0 33 -22 75q-142 42 -142 347q0 91 14.5 159t36 106.5t52 62t57 30.5t56.5 7q27 0 51.5 -5.5t35.5 -10.5l11 -6v-85q-45 21 -99 21q-49 0 -80 -64.5
t-31 -214.5q0 -267 101 -267q22 0 49 6t43 12l17 6v-89z" />
    <glyph glyph-name="Egrave" unicode="&#xc8;" horiz-adv-x="404" 
d="M285 750h-101l-139 125h137zM379 700l-5 -90h-197v-195h177v-83h-177v-242h200v-90h-304v700h306z" />
    <glyph glyph-name="Eacute" unicode="&#xc9;" horiz-adv-x="404" 
d="M405 875l-139 -125h-101l103 125h137zM379 700l-5 -90h-197v-195h177v-83h-177v-242h200v-90h-304v700h306z" />
    <glyph glyph-name="Ecircumflex" unicode="&#xca;" horiz-adv-x="404" 
d="M404 750h-121l-61 62l-62 -62h-121l138 125h89zM379 700l-5 -90h-197v-195h177v-83h-177v-242h200v-90h-304v700h306z" />
    <glyph glyph-name="Edieresis" unicode="&#xcb;" horiz-adv-x="404" 
d="M388 812q0 -26 -18 -44t-43 -18t-43 18t-18 44t18 44t43 18t43 -18t18 -44zM190 812q0 -26 -18 -44t-44 -18q-25 0 -43 18t-18 44t18 44t43 18q26 0 44 -18t18 -44zM379 700l-5 -90h-197v-195h177v-83h-177v-242h200v-90h-304v700h306z" />
    <glyph glyph-name="Igrave" unicode="&#xcc;" horiz-adv-x="252" 
d="M175 750h-101l-139 125h137zM179 0h-106v700h106v-700z" />
    <glyph glyph-name="Iacute" unicode="&#xcd;" horiz-adv-x="252" 
d="M315 875l-139 -125h-101l103 125h137zM179 0h-106v700h106v-700z" />
    <glyph glyph-name="Icircumflex" unicode="&#xce;" horiz-adv-x="252" 
d="M309 750h-121l-61 62l-62 -62h-121l138 125h89zM179 0h-106v700h106v-700z" />
    <glyph glyph-name="Idieresis" unicode="&#xcf;" horiz-adv-x="252" 
d="M277 812q0 -26 -18 -44t-43 -18t-43 18t-18 44t18 44t43 18t43 -18t18 -44zM99 812q0 -26 -18.5 -44t-43.5 -18t-43 18t-18 44t18 44t43 18t43.5 -18t18.5 -44zM179 0h-106v700h106v-700z" />
    <glyph glyph-name="Eth" unicode="&#xd0;" horiz-adv-x="502" 
d="M459 355q0 -111 -18.5 -183.5t-56 -109t-80 -49.5t-103.5 -13h-126v337h-57v78h57v285h124q47 0 80.5 -6t70 -26.5t58.5 -57t36.5 -101t14.5 -154.5zM355 355q0 81 -9.5 133.5t-29.5 79t-44 36.5t-59 10h-34v-199h93v-78h-93v-251h28q54 0 84 19.5t47 79t17 170.5z" />
    <glyph glyph-name="Ntilde" unicode="&#xd1;" horiz-adv-x="530" 
d="M420 783q-41 -26 -73 -26q-31 0 -80.5 20.5t-76.5 20.5q-34 0 -80 -30v94q48 28 87 28q33 0 84 -19.5t71 -19.5q26 0 68 25v-93zM457 0h-91l-129 314q-16 40 -35.5 95t-30.5 91l-11 35q17 -152 17 -234v-301h-104v700h99l126 -307q18 -43 36 -98t27 -89l9 -34
q-17 154 -17 244v284h104v-700z" />
    <glyph glyph-name="Ograve" unicode="&#xd2;" horiz-adv-x="484" 
d="M285 750h-101l-139 125h137zM449 350q0 -92 -12.5 -159.5t-32 -105t-48.5 -60t-55 -29t-59 -6.5t-58.5 6t-55 28t-48.5 59.5t-32 105.5t-13 161t13 161t32.5 105.5t49 59.5t55 28t57.5 6t58.5 -7t55 -29.5t48 -60t32.5 -105t13 -158.5zM345 350q0 156 -26 219.5t-77 63.5
q-33 0 -54 -21.5t-35 -86t-14 -175.5q0 -283 103 -283t103 283z" />
    <glyph glyph-name="Oacute" unicode="&#xd3;" horiz-adv-x="484" 
d="M419 875l-139 -125h-101l103 125h137zM449 350q0 -92 -12.5 -159.5t-32 -105t-48.5 -60t-55 -29t-59 -6.5t-58.5 6t-55 28t-48.5 59.5t-32 105.5t-13 161t13 161t32.5 105.5t49 59.5t55 28t57.5 6t58.5 -7t55 -29.5t48 -60t32.5 -105t13 -158.5zM345 350q0 156 -26 219.5
t-77 63.5q-33 0 -54 -21.5t-35 -86t-14 -175.5q0 -283 103 -283t103 283z" />
    <glyph glyph-name="Ocircumflex" unicode="&#xd4;" horiz-adv-x="484" 
d="M425 750h-121l-61 62l-62 -62h-121l138 125h89zM449 350q0 -92 -12.5 -159.5t-32 -105t-48.5 -60t-55 -29t-59 -6.5t-58.5 6t-55 28t-48.5 59.5t-32 105.5t-13 161t13 161t32.5 105.5t49 59.5t55 28t57.5 6t58.5 -7t55 -29.5t48 -60t32.5 -105t13 -158.5zM345 350
q0 156 -26 219.5t-77 63.5q-33 0 -54 -21.5t-35 -86t-14 -175.5q0 -283 103 -283t103 283z" />
    <glyph glyph-name="Otilde" unicode="&#xd5;" horiz-adv-x="484" 
d="M397 783q-41 -26 -73 -26q-31 0 -80.5 20.5t-76.5 20.5q-33 0 -80 -30v94q48 28 87 28q33 0 84 -19.5t71 -19.5q26 0 68 25v-93zM449 350q0 -92 -12.5 -159.5t-32 -105t-48.5 -60t-55 -29t-59 -6.5t-58.5 6t-55 28t-48.5 59.5t-32 105.5t-13 161t13 161t32.5 105.5
t49 59.5t55 28t57.5 6t58.5 -7t55 -29.5t48 -60t32.5 -105t13 -158.5zM345 350q0 156 -26 219.5t-77 63.5q-33 0 -54 -21.5t-35 -86t-14 -175.5q0 -283 103 -283t103 283z" />
    <glyph glyph-name="Odieresis" unicode="&#xd6;" horiz-adv-x="484" 
d="M403 812q0 -26 -18 -44t-43 -18t-43 18t-18 44t18 44t43 18t43 -18t18 -44zM205 812q0 -26 -18.5 -44t-43.5 -18t-43 18t-18 44t18 44t43 18t43.5 -18t18.5 -44zM449 350q0 -92 -12.5 -159.5t-32 -105t-48.5 -60t-55 -29t-59 -6.5t-58.5 6t-55 28t-48.5 59.5t-32 105.5
t-13 161t13 161t32.5 105.5t49 59.5t55 28t57.5 6t58.5 -7t55 -29.5t48 -60t32.5 -105t13 -158.5zM345 350q0 156 -26 219.5t-77 63.5q-33 0 -54 -21.5t-35 -86t-14 -175.5q0 -283 103 -283t103 283z" />
    <glyph glyph-name="multiply" unicode="&#xd7;" horiz-adv-x="498" 
d="M447 211l-73 -74l-125 124l-121 -120l-74 73l121 121l-124 124l74 74l124 -124l121 120l74 -73l-121 -121z" />
    <glyph glyph-name="Oslash" unicode="&#xd8;" horiz-adv-x="484" 
d="M449 350q0 -92 -13 -159.5t-32 -105t-48.5 -60t-55.5 -29t-58 -6.5q-51 0 -84 16l-39 -116h-67l53 156q-70 84 -70 304q0 93 13 161t32.5 105.5t49 59.5t55 28t57.5 6q48 0 83 -18l40 118h67l-54 -159q71 -87 71 -301zM297 607q-22 26 -55 26t-54 -21.5t-35 -86
t-14 -175.5q0 -98 13 -165zM345 350q0 99 -13 166l-144 -423q21 -26 54 -26q103 0 103 283z" />
    <glyph glyph-name="Ugrave" unicode="&#xd9;" horiz-adv-x="506" 
d="M305 750h-101l-139 125h137zM438 180q0 -100 -46 -145t-139 -45q-96 0 -140.5 43.5t-44.5 146.5v520h104v-532q0 -49 18 -71.5t63 -22.5q81 0 81 94v532h104v-520z" />
    <glyph glyph-name="Uacute" unicode="&#xda;" horiz-adv-x="506" 
d="M435 875l-139 -125h-101l103 125h137zM438 180q0 -100 -46 -145t-139 -45q-96 0 -140.5 43.5t-44.5 146.5v520h104v-532q0 -49 18 -71.5t63 -22.5q81 0 81 94v532h104v-520z" />
    <glyph glyph-name="Ucircumflex" unicode="&#xdb;" horiz-adv-x="506" 
d="M436 750h-121l-61 62l-62 -62h-121l138 125h89zM438 180q0 -100 -46 -145t-139 -45q-96 0 -140.5 43.5t-44.5 146.5v520h104v-532q0 -49 18 -71.5t63 -22.5q81 0 81 94v532h104v-520z" />
    <glyph glyph-name="Udieresis" unicode="&#xdc;" horiz-adv-x="506" 
d="M414 812q0 -26 -18 -44t-43 -18t-43 18t-18 44t18 44t43 18t43 -18t18 -44zM216 812q0 -26 -18 -44t-44 -18q-25 0 -43 18t-18 44t18 44t43 18q26 0 44 -18t18 -44zM438 180q0 -100 -46 -145t-139 -45q-96 0 -140.5 43.5t-44.5 146.5v520h104v-532q0 -49 18 -71.5
t63 -22.5q81 0 81 94v532h104v-520z" />
    <glyph glyph-name="Yacute" unicode="&#xdd;" horiz-adv-x="424" 
d="M404 875l-139 -125h-101l103 125h137zM434 700l-170 -412v-288h-104v288l-170 412h123l99 -320l99 320h123z" />
    <glyph glyph-name="Thorn" unicode="&#xde;" horiz-adv-x="452" 
d="M427 360q0 -124 -62 -179t-188 -59v-122h-104v700h104v-100h27q122 0 172.5 -56t50.5 -184zM323 360q0 96 -25.5 127t-89.5 31h-31v-322q87 4 116.5 41.5t29.5 122.5z" />
    <glyph glyph-name="germandbls" unicode="&#xdf;" horiz-adv-x="514" 
d="M488 144q0 -45 -15 -77t-40.5 -48t-52.5 -22.5t-58 -6.5q-17 0 -41 4t-40 8l-16 4v87q58 -18 94 -18q67 0 67 70q0 46 -41 78l-42 32q-67 50 -67 120q0 53 44 112q37 51 37 94q0 71 -67 71q-76 0 -76 -107v-545h-104v545q0 92 46.5 138.5t130.5 46.5q82 0 128.5 -35.5
t46.5 -104.5q0 -75 -61 -132q-38 -34 -38 -65q0 -30 40 -60l43 -33q82 -62 82 -156z" />
    <glyph glyph-name="agrave" unicode="&#xe0;" horiz-adv-x="450" 
d="M285 620h-101l-139 155h132zM382 0h-86l-15 47q-4 -6 -12.5 -15.5t-35 -25.5t-53.5 -16q-142 0 -142 171q0 41 12.5 73t30.5 50t43 29t45.5 14.5t41.5 3.5h67v65q0 35 -15.5 48t-52.5 13q-24 0 -57 -7t-54 -14l-21 -7v83q72 28 154 28q31 0 54.5 -5.5t47 -20t36 -45.5
t12.5 -76v-393zM278 111v156l-46 -1q-47 -1 -68.5 -22t-21.5 -80q0 -57 15 -76t45 -19q18 0 37 10.5t29 20.5z" />
    <glyph glyph-name="aacute" unicode="&#xe1;" horiz-adv-x="450" 
d="M415 775l-139 -155h-101l108 155h132zM382 0h-86l-15 47q-4 -6 -12.5 -15.5t-35 -25.5t-53.5 -16q-142 0 -142 171q0 41 12.5 73t30.5 50t43 29t45.5 14.5t41.5 3.5h67v65q0 35 -15.5 48t-52.5 13q-24 0 -57 -7t-54 -14l-21 -7v83q72 28 154 28q31 0 54.5 -5.5t47 -20
t36 -45.5t12.5 -76v-393zM278 111v156l-46 -1q-47 -1 -68.5 -22t-21.5 -80q0 -57 15 -76t45 -19q18 0 37 10.5t29 20.5z" />
    <glyph glyph-name="acircumflex" unicode="&#xe2;" horiz-adv-x="450" 
d="M408 620h-121l-61 82l-62 -82h-121l138 155h89zM382 0h-86l-15 47q-4 -6 -12.5 -15.5t-35 -25.5t-53.5 -16q-142 0 -142 171q0 41 12.5 73t30.5 50t43 29t45.5 14.5t41.5 3.5h67v65q0 35 -15.5 48t-52.5 13q-24 0 -57 -7t-54 -14l-21 -7v83q72 28 154 28q31 0 54.5 -5.5
t47 -20t36 -45.5t12.5 -76v-393zM278 111v156l-46 -1q-47 -1 -68.5 -22t-21.5 -80q0 -57 15 -76t45 -19q18 0 37 10.5t29 20.5z" />
    <glyph glyph-name="atilde" unicode="&#xe3;" horiz-adv-x="450" 
d="M380 653q-41 -26 -73 -26q-37 0 -79 24q-47 27 -82 27q-30 0 -76 -30v94q48 28 87 28q44 0 89 -25q45 -24 70 -24q22 0 64 25v-93zM382 0h-86l-15 47q-4 -6 -12.5 -15.5t-35 -25.5t-53.5 -16q-142 0 -142 171q0 41 12.5 73t30.5 50t43 29t45.5 14.5t41.5 3.5h67v65
q0 35 -15.5 48t-52.5 13q-24 0 -57 -7t-54 -14l-21 -7v83q72 28 154 28q31 0 54.5 -5.5t47 -20t36 -45.5t12.5 -76v-393zM278 111v156l-46 -1q-47 -1 -68.5 -22t-21.5 -80q0 -57 15 -76t45 -19q18 0 37 10.5t29 20.5z" />
    <glyph glyph-name="adieresis" unicode="&#xe4;" horiz-adv-x="450" 
d="M381 682q0 -26 -18 -44t-43 -18t-43 18t-18 44t18 44t43 18t43 -18t18 -44zM193 682q0 -26 -18.5 -44t-43.5 -18t-43 18t-18 44t18 44t43 18t43.5 -18t18.5 -44zM382 0h-86l-15 47q-4 -6 -12.5 -15.5t-35 -25.5t-53.5 -16q-142 0 -142 171q0 41 12.5 73t30.5 50t43 29
t45.5 14.5t41.5 3.5h67v65q0 35 -15.5 48t-52.5 13q-24 0 -57 -7t-54 -14l-21 -7v83q72 28 154 28q31 0 54.5 -5.5t47 -20t36 -45.5t12.5 -76v-393zM278 111v156l-46 -1q-47 -1 -68.5 -22t-21.5 -80q0 -57 15 -76t45 -19q18 0 37 10.5t29 20.5z" />
    <glyph glyph-name="aring" unicode="&#xe5;" horiz-adv-x="450" 
d="M349 683q0 -55 -33 -86t-90 -31t-90.5 30.5t-33.5 86.5t33 86.5t91 30.5q54 0 88.5 -31.5t34.5 -85.5zM382 0h-86l-15 47q-4 -6 -12.5 -15.5t-35 -25.5t-53.5 -16q-142 0 -142 171q0 41 12.5 73t30.5 50t43 29t45.5 14.5t41.5 3.5h67v65q0 35 -15.5 48t-52.5 13
q-24 0 -57 -7t-54 -14l-21 -7v83q72 28 154 28q31 0 54.5 -5.5t47 -20t36 -45.5t12.5 -76v-393zM274 683q0 57 -48 57t-48 -57t48 -57t48 57zM278 111v156l-46 -1q-47 -1 -68.5 -22t-21.5 -80q0 -57 15 -76t45 -19q18 0 37 10.5t29 20.5z" />
    <glyph glyph-name="ae" unicode="&#xe6;" horiz-adv-x="667" 
d="M632 265l-1 -33h-250q0 -95 27 -125.5t72 -30.5q18 0 48.5 5t51.5 10l21 5v-86q-61 -20 -121 -20q-117 0 -159 81q-55 -81 -135 -81q-23 0 -42 3t-39.5 14t-34.5 29t-23 50t-9 75q0 41 12.5 73t30.5 50t43 29t45.5 14.5t41.5 3.5h67v65q0 35 -15.5 48t-52.5 13
q-24 0 -57 -7t-54 -14l-21 -7v83q72 28 154 28q79 0 115 -50q47 50 119 50q174 0 166 -275zM531 299q0 97 -15.5 133t-49.5 36q-43 0 -63 -38t-21 -131h149zM278 151v116l-46 -1q-47 -1 -68.5 -22t-21.5 -80q0 -57 15 -76t45 -19t53 25t23 57z" />
    <glyph glyph-name="ccedilla" unicode="&#xe7;" horiz-adv-x="347" 
d="M332 10q-40 -16 -88 -19q34 -39 34 -81q0 -105 -115 -105q-18 0 -40 4.5t-35 8.5l-13 5v77q48 -17 74 -17q38 0 38 40q0 31 -23 77q-121 43 -121 262q0 73 15 127t36 82t50.5 44.5t51.5 20.5t47 4q24 0 46.5 -5t32.5 -11l10 -5v-85q-47 21 -91 21q-94 0 -94 -193
q0 -185 86 -185q22 0 46.5 5.5t38.5 11.5l14 5v-89z" />
    <glyph glyph-name="egrave" unicode="&#xe8;" horiz-adv-x="435" 
d="M285 620h-101l-139 155h132zM397 265l-1 -33h-250q0 -95 27 -125.5t72 -30.5q19 0 49.5 5t51.5 10l20 5v-86q-61 -20 -121 -20q-33 0 -57.5 4.5t-53.5 20.5t-47.5 44t-31 80t-12.5 123q0 278 188 278q174 0 166 -275zM296 299q0 97 -15.5 133t-49.5 36q-43 0 -63 -38
t-21 -131h149z" />
    <glyph glyph-name="eacute" unicode="&#xe9;" horiz-adv-x="435" 
d="M415 775l-139 -155h-101l108 155h132zM397 265l-1 -33h-250q0 -95 27 -125.5t72 -30.5q19 0 49.5 5t51.5 10l20 5v-86q-61 -20 -121 -20q-33 0 -57.5 4.5t-53.5 20.5t-47.5 44t-31 80t-12.5 123q0 278 188 278q174 0 166 -275zM296 299q0 97 -15.5 133t-49.5 36
q-43 0 -63 -38t-21 -131h149z" />
    <glyph glyph-name="ecircumflex" unicode="&#xea;" horiz-adv-x="435" 
d="M403 620h-121l-61 82l-62 -82h-121l138 155h89zM397 265l-1 -33h-250q0 -95 27 -125.5t72 -30.5q19 0 49.5 5t51.5 10l20 5v-86q-61 -20 -121 -20q-33 0 -57.5 4.5t-53.5 20.5t-47.5 44t-31 80t-12.5 123q0 278 188 278q174 0 166 -275zM296 299q0 97 -15.5 133t-49.5 36
q-43 0 -63 -38t-21 -131h149z" />
    <glyph glyph-name="edieresis" unicode="&#xeb;" horiz-adv-x="435" 
d="M376 682q0 -26 -18 -44t-43 -18t-43 18t-18 44t18 44t43 18t43 -18t18 -44zM188 682q0 -26 -18 -44t-44 -18q-25 0 -43 18t-18 44t18 44t43 18q26 0 44 -18t18 -44zM397 265l-1 -33h-250q0 -95 27 -125.5t72 -30.5q19 0 49.5 5t51.5 10l20 5v-86q-61 -20 -121 -20
q-33 0 -57.5 4.5t-53.5 20.5t-47.5 44t-31 80t-12.5 123q0 278 188 278q174 0 166 -275zM296 299q0 97 -15.5 133t-49.5 36q-43 0 -63 -38t-21 -131h149z" />
    <glyph glyph-name="igrave" unicode="&#xec;" horiz-adv-x="239" 
d="M168 620h-101l-139 155h132zM172 0h-104v530h104v-530z" />
    <glyph glyph-name="iacute" unicode="&#xed;" horiz-adv-x="239" 
d="M308 775l-139 -155h-101l108 155h132zM172 0h-104v530h104v-530z" />
    <glyph glyph-name="icircumflex" unicode="&#xee;" horiz-adv-x="239" 
d="M302 620h-121l-61 82l-62 -82h-121l138 155h89zM172 0h-104v530h104v-530z" />
    <glyph glyph-name="idieresis" unicode="&#xef;" horiz-adv-x="239" 
d="M275 682q0 -26 -18 -44t-43 -18t-43 18t-18 44t18 44t43 18t43 -18t18 -44zM87 682q0 -26 -18.5 -44t-43.5 -18t-43 18t-18 44t18 44t43 18t43.5 -18t18.5 -44zM172 0h-104v530h104v-530z" />
    <glyph glyph-name="eth" unicode="&#xf0;" horiz-adv-x="480" 
d="M437 285q0 -89 -15.5 -149.5t-45 -91t-62.5 -42.5t-77 -12q-31 0 -55.5 4.5t-51.5 19.5t-45 39.5t-30 68.5t-12 103q0 124 49 178t128 54q34 0 61.5 -10.5t37.5 -21.5l10 -11q-14 88 -47 137l-104 -71v82l55 38q-49 34 -138 40v80q135 -3 217 -69l100 67v-82l-52 -34
q77 -106 77 -317zM333 270l-3 75q-38 34 -89 34q-52 0 -73 -34t-21 -117q0 -93 22 -126.5t68 -33.5q51 0 73.5 43t22.5 159z" />
    <glyph glyph-name="ntilde" unicode="&#xf1;" horiz-adv-x="515" 
d="M413 653q-41 -26 -73 -26q-37 0 -79 24q-47 27 -82 27q-29 0 -76 -30v94q48 28 87 28q44 0 89 -25q45 -24 70 -24q22 0 64 25v-93zM447 0h-104v386q0 35 -10 49t-38 14q-24 0 -53.5 -9.5t-47.5 -19.5l-17 -9v-411h-104v530h79l22 -50q8 7 21.5 17t52.5 26.5t75 16.5
q124 0 124 -138v-402z" />
    <glyph glyph-name="ograve" unicode="&#xf2;" horiz-adv-x="468" 
d="M295 620h-101l-139 155h132zM433 265q0 -82 -16.5 -138.5t-46 -85t-62 -40t-74.5 -11.5t-75 12t-62.5 40.5t-45.5 85t-16 137.5q0 275 199 275q41 0 74 -11.5t62.5 -40t46 -85t16.5 -138.5zM329 265q0 118 -24 159t-71 41q-48 0 -71.5 -43t-23.5 -157q0 -199 95 -199
t95 199z" />
    <glyph glyph-name="oacute" unicode="&#xf3;" horiz-adv-x="468" 
d="M415 775l-139 -155h-101l108 155h132zM433 265q0 -82 -16.5 -138.5t-46 -85t-62 -40t-74.5 -11.5t-75 12t-62.5 40.5t-45.5 85t-16 137.5q0 275 199 275q41 0 74 -11.5t62.5 -40t46 -85t16.5 -138.5zM329 265q0 118 -24 159t-71 41q-48 0 -71.5 -43t-23.5 -157
q0 -199 95 -199t95 199z" />
    <glyph glyph-name="ocircumflex" unicode="&#xf4;" horiz-adv-x="468" 
d="M417 620h-121l-61 82l-62 -82h-121l138 155h89zM433 265q0 -82 -16.5 -138.5t-46 -85t-62 -40t-74.5 -11.5t-75 12t-62.5 40.5t-45.5 85t-16 137.5q0 275 199 275q41 0 74 -11.5t62.5 -40t46 -85t16.5 -138.5zM329 265q0 118 -24 159t-71 41q-48 0 -71.5 -43t-23.5 -157
q0 -199 95 -199t95 199z" />
    <glyph glyph-name="otilde" unicode="&#xf5;" horiz-adv-x="468" 
d="M389 653q-41 -26 -73 -26q-37 0 -79 24q-47 27 -82 27q-29 0 -76 -30v94q48 28 87 28q44 0 89 -25q45 -24 70 -24q22 0 64 25v-93zM433 265q0 -82 -16.5 -138.5t-46 -85t-62 -40t-74.5 -11.5t-75 12t-62.5 40.5t-45.5 85t-16 137.5q0 275 199 275q41 0 74 -11.5t62.5 -40
t46 -85t16.5 -138.5zM329 265q0 118 -24 159t-71 41q-48 0 -71.5 -43t-23.5 -157q0 -199 95 -199t95 199z" />
    <glyph glyph-name="odieresis" unicode="&#xf6;" horiz-adv-x="468" 
d="M390 682q0 -26 -18 -44t-43 -18t-43 18t-18 44t18 44t43 18t43 -18t18 -44zM202 682q0 -26 -18 -44t-44 -18q-25 0 -43 18t-18 44t18 44t43 18q26 0 44 -18t18 -44zM433 265q0 -82 -16.5 -138.5t-46 -85t-62 -40t-74.5 -11.5t-75 12t-62.5 40.5t-45.5 85t-16 137.5
q0 275 199 275q41 0 74 -11.5t62.5 -40t46 -85t16.5 -138.5zM329 265q0 118 -24 159t-71 41q-48 0 -71.5 -43t-23.5 -157q0 -199 95 -199t95 199z" />
    <glyph glyph-name="divide" unicode="&#xf7;" horiz-adv-x="536" 
d="M343 553q0 -32 -21.5 -55t-53.5 -23t-53.5 23t-21.5 55t21.5 54t53.5 22t53.5 -22t21.5 -54zM473 292h-410v94h410v-94zM343 119q0 -32 -21.5 -55t-53.5 -23t-53.5 23t-21.5 55t21.5 54t53.5 22t53.5 -22t21.5 -54z" />
    <glyph glyph-name="oslash" unicode="&#xf8;" horiz-adv-x="468" 
d="M433 265q0 -82 -16.5 -138.5t-46 -85t-62 -40t-74.5 -11.5q-39 0 -71 11l-44 -111h-67l56 142q-73 63 -73 233q0 150 55.5 212.5t143.5 62.5q39 0 71 -11l44 111h67l-56 -142q73 -65 73 -233zM277 455q-19 10 -43 10q-46 0 -70.5 -44t-24.5 -156q0 -74 14 -119zM329 265
q0 81 -12 124l-123 -310q19 -13 40 -13q95 0 95 199z" />
    <glyph glyph-name="ugrave" unicode="&#xf9;" horiz-adv-x="505" 
d="M305 620h-101l-139 155h132zM432 0h-85l-13 46q-6 -6 -17 -15.5t-43.5 -25t-63.5 -15.5q-65 0 -103.5 33t-38.5 122v385h104v-380q0 -40 13 -55t41 -15q22 0 47.5 10t40.5 20l14 11v409h104v-530z" />
    <glyph glyph-name="uacute" unicode="&#xfa;" horiz-adv-x="505" 
d="M435 775l-139 -155h-101l108 155h132zM432 0h-85l-13 46q-6 -6 -17 -15.5t-43.5 -25t-63.5 -15.5q-65 0 -103.5 33t-38.5 122v385h104v-380q0 -40 13 -55t41 -15q22 0 47.5 10t40.5 20l14 11v409h104v-530z" />
    <glyph glyph-name="ucircumflex" unicode="&#xfb;" horiz-adv-x="505" 
d="M435 620h-121l-61 82l-62 -82h-121l138 155h89zM432 0h-85l-13 46q-6 -6 -17 -15.5t-43.5 -25t-63.5 -15.5q-65 0 -103.5 33t-38.5 122v385h104v-380q0 -40 13 -55t41 -15q22 0 47.5 10t40.5 20l14 11v409h104v-530z" />
    <glyph glyph-name="udieresis" unicode="&#xfc;" horiz-adv-x="505" 
d="M408 682q0 -26 -18 -44t-43 -18t-43 18t-18 44t18 44t43 18t43 -18t18 -44zM220 682q0 -26 -18 -44t-44 -18q-25 0 -43 18t-18 44t18 44t43 18q26 0 44 -18t18 -44zM432 0h-85l-13 46q-6 -6 -17 -15.5t-43.5 -25t-63.5 -15.5q-65 0 -103.5 33t-38.5 122v385h104v-380
q0 -40 13 -55t41 -15q22 0 47.5 10t40.5 20l14 11v409h104v-530z" />
    <glyph glyph-name="yacute" unicode="&#xfd;" horiz-adv-x="409" 
d="M385 775l-139 -155h-101l108 155h132zM409 530l-156 -606q-18 -71 -53.5 -97.5t-93.5 -26.5q-20 0 -42.5 4t-35.5 8l-12 3v82q57 -13 81 -13q26 0 41 11.5t23 43.5l13 55l-174 536h124l93 -411l78 411h114z" />
    <glyph glyph-name="thorn" unicode="&#xfe;" horiz-adv-x="490" 
d="M447 269q0 -279 -188 -279q-48 0 -82 21v-201h-104v910h104v-227q47 47 107 47q21 0 38.5 -3.5t37 -13t34.5 -29t27.5 -48t19 -74t6.5 -103.5zM343 269q0 80 -11.5 123t-27.5 54t-44 11q-42 0 -83 -36v-339q39 -13 66 -13q16 0 28 3.5t26.5 16t23.5 33t15.5 58.5t6.5 89z
" />
    <glyph glyph-name="ydieresis" unicode="&#xff;" horiz-adv-x="409" 
d="M360 682q0 -26 -18 -44t-43 -18t-43 18t-18 44t18 44t43 18t43 -18t18 -44zM172 682q0 -26 -18 -44t-44 -18q-25 0 -43 18t-18 44t18 44t43 18q26 0 44 -18t18 -44zM409 530l-156 -606q-18 -71 -53.5 -97.5t-93.5 -26.5q-20 0 -42.5 4t-35.5 8l-12 3v82q57 -13 81 -13
q26 0 41 11.5t23 43.5l13 55l-174 536h124l93 -411l78 411h114z" />
    <glyph glyph-name="dotlessi" unicode="&#x131;" horiz-adv-x="239" 
d="M172 0h-104v530h104v-530z" />
    <glyph glyph-name="Lslash" unicode="&#x141;" horiz-adv-x="344" 
d="M337 91l-13 -91h-249v318l-52 -42v93l52 42v289h104v-209l93 74v-93l-93 -74v-307h158z" />
    <glyph glyph-name="lslash" unicode="&#x142;" horiz-adv-x="249" 
d="M229 444l-52 -43v-401h-104v319l-53 -43v93l53 43v308h104v-226l52 43v-93z" />
    <glyph glyph-name="OE" unicode="&#x152;" horiz-adv-x="573" 
d="M548 700l-5 -91h-172v-194h162v-83h-162v-241h175v-91h-251q-31 -10 -53 -10q-33 0 -58.5 6t-55 28t-48.5 59.5t-32 105.5t-13 161t13 161t32.5 105.5t49 59.5t55 28t57.5 6q8 0 21 -2.5t22 -5.5l9 -2h254zM267 71v558q-16 4 -25 4q-33 0 -54 -21.5t-35 -86t-14 -175.5
q0 -283 103 -283z" />
    <glyph glyph-name="oe" unicode="&#x153;" horiz-adv-x="718" 
d="M683 265l-1 -33h-250q0 -95 27 -125.5t72 -30.5q18 0 48.5 5t52.5 10l21 5v-86q-62 -20 -122 -20q-105 0 -152 70q-47 -70 -145 -70q-42 0 -75 12t-62.5 40.5t-45.5 85t-16 137.5q0 150 55.5 212.5t143.5 62.5q100 0 146 -72q40 72 137 72q174 0 166 -275zM582 299
q0 97 -15.5 133t-49.5 36q-43 0 -63 -38t-21 -131h149zM329 265q0 117 -24.5 158.5t-70.5 41.5t-70.5 -44t-24.5 -156q0 -199 95 -199t95 199z" />
    <glyph glyph-name="Scaron" unicode="&#x160;" horiz-adv-x="368" 
d="M397 875l-138 -125h-89l-138 125h121l62 -65l61 65h121zM338 183q0 -193 -197 -193q-26 0 -53.5 4.5t-42.5 9.5l-15 4v91q64 -20 106 -20q98 0 98 98q0 30 -10 54t-21.5 37t-35.5 35l-58 53q-75 69 -75 167t55 142.5t129 44.5q26 0 52 -4.5t40 -9.5l13 -4v-88
q-52 20 -100 20q-39 0 -63 -23.5t-24 -69.5q0 -38 14.5 -61.5t43.5 -49.5l53 -47q42 -38 66.5 -81.5t24.5 -108.5z" />
    <glyph glyph-name="scaron" unicode="&#x161;" horiz-adv-x="338" 
d="M372 775l-138 -155h-89l-138 155h121l62 -83l61 83h121zM308 149q0 -159 -171 -159q-22 0 -48 5t-41 9l-14 5v88q66 -22 98 -22q76 0 76 70q0 28 -12.5 44t-39.5 33l-37 24q-84 54 -84 141q0 75 45 114t116 39q25 0 49.5 -5t36.5 -10l11 -5v-83q-45 19 -94 19
q-30 0 -47.5 -16.5t-17.5 -46.5q0 -19 8 -33t16.5 -21t28.5 -19l43 -28q78 -50 78 -143z" />
    <glyph glyph-name="Ydieresis" unicode="&#x178;" horiz-adv-x="424" 
d="M372 812q0 -26 -18 -44t-43 -18t-43 18t-18 44t18 44t43 18t43 -18t18 -44zM174 812q0 -26 -18 -44t-44 -18q-25 0 -43 18t-18 44t18 44t43 18q26 0 44 -18t18 -44zM434 700l-170 -412v-288h-104v288l-170 412h123l99 -320l99 320h123z" />
    <glyph glyph-name="Zcaron" unicode="&#x17d;" horiz-adv-x="387" 
d="M376 875l-138 -125h-89l-138 125h121l62 -65l61 65h121zM354 86l-6 -86h-310v78l210 536h-210v86h314v-78l-210 -536h212z" />
    <glyph glyph-name="zcaron" unicode="&#x17e;" horiz-adv-x="381" 
d="M373 775l-138 -155h-89l-138 155h121l62 -83l61 83h121zM348 84l-6 -84h-304v72l197 374h-197v84h309v-72l-198 -374h199z" />
    <glyph glyph-name="florin" unicode="&#x192;" horiz-adv-x="308" 
d="M389 643l-14 -78q-50 24 -84 24q-53 0 -65 -62l-11 -57h95l-25 -75h-83l-66 -381q-19 -108 -73.5 -156t-176.5 -48l13 80q62 6 92 35t40 88l67 382h-65l13 75h65l10 54q15 80 55.5 113t106.5 33q26 0 52.5 -7t40.5 -13z" />
    <glyph glyph-name="circumflex" unicode="&#x2c6;" horiz-adv-x="415" 
d="M390 620h-121l-61 82l-62 -82h-121l138 155h89z" />
    <glyph glyph-name="caron" unicode="&#x2c7;" horiz-adv-x="415" 
d="M390 775l-138 -155h-89l-138 155h121l62 -83l61 83h121z" />
    <glyph glyph-name="breve" unicode="&#x2d8;" horiz-adv-x="384" 
d="M359 775q0 -83 -42.5 -126.5t-124.5 -43.5q-167 0 -167 170h96q0 -92 71 -92q30 0 51 22t21 70h95z" />
    <glyph glyph-name="dotaccent" unicode="&#x2d9;" horiz-adv-x="200" 
d="M175 688q0 -32 -21 -55t-53 -23t-54 23t-22 55t22 54t54 22t53 -22t21 -54z" />
    <glyph glyph-name="ring" unicode="&#x2da;" horiz-adv-x="297" 
d="M272 683q0 -55 -33 -86t-90 -31t-90.5 30.5t-33.5 86.5t33 86.5t91 30.5q54 0 88.5 -31.5t34.5 -85.5zM197 683q0 57 -48 57t-48 -57t48 -57t48 57z" />
    <glyph glyph-name="ogonek" unicode="&#x2db;" horiz-adv-x="253" 
d="M228 -177q-47 -18 -87 -18q-116 0 -116 105q0 28 14 53t28 36l14 11h64q-29 -47 -29 -87t39 -40q12 0 30 4.5t31 8.5l12 4v-77z" />
    <glyph glyph-name="tilde" unicode="&#x2dc;" horiz-adv-x="360" 
d="M335 653q-41 -26 -73 -26q-37 0 -79 24q-47 27 -82 27q-29 0 -76 -30v94q48 28 87 28q44 0 89 -25q45 -24 70 -24q22 0 64 25v-93z" />
    <glyph glyph-name="hungarumlaut" unicode="&#x2dd;" horiz-adv-x="383" 
d="M358 775l-104 -155h-76l62 155h118zM205 775l-103 -155h-77l63 155h117z" />
    <glyph glyph-name="endash" unicode="&#x2013;" horiz-adv-x="555" 
d="M492 288h-429v94h429v-94z" />
    <glyph glyph-name="emdash" unicode="&#x2014;" horiz-adv-x="655" 
d="M592 288h-529v94h529v-94z" />
    <glyph glyph-name="quoteleft" unicode="&#x2018;" horiz-adv-x="258" 
d="M198 714l-17 -289h-131l72 289h76z" />
    <glyph glyph-name="quoteright" unicode="&#x2019;" horiz-adv-x="258" 
d="M208 714l-71 -289h-77l17 289h131z" />
    <glyph glyph-name="quotesinglbase" unicode="&#x201a;" horiz-adv-x="258" 
d="M208 130l-71 -290h-77l17 290h131z" />
    <glyph glyph-name="quotedblleft" unicode="&#x201c;" horiz-adv-x="448" 
d="M388 714l-17 -289h-131l71 289h77zM198 714l-17 -289h-131l72 289h76z" />
    <glyph glyph-name="quotedblright" unicode="&#x201d;" horiz-adv-x="448" 
d="M398 714l-72 -289h-76l17 289h131zM208 714l-71 -289h-77l17 289h131z" />
    <glyph glyph-name="quotedblbase" unicode="&#x201e;" horiz-adv-x="448" 
d="M398 130l-72 -290h-76l17 290h131zM208 130l-71 -290h-77l17 290h131z" />
    <glyph glyph-name="dagger" unicode="&#x2020;" horiz-adv-x="490" 
d="M450 436h-153v-436h-104v436h-153v94h153v190h104v-190h153v-94z" />
    <glyph glyph-name="daggerdbl" unicode="&#x2021;" horiz-adv-x="490" 
d="M450 185h-153v-185h-104v185h-153v94h153v162h-153v94h153v185h104v-185h153v-94h-153v-162h153v-94z" />
    <glyph glyph-name="bullet" unicode="&#x2022;" horiz-adv-x="351" 
d="M278 378q0 -44 -29 -74t-73 -30t-73.5 30t-29.5 74q0 45 29.5 74t73.5 29t73 -29.5t29 -73.5z" />
    <glyph glyph-name="ellipsis" unicode="&#x2026;" horiz-adv-x="796" 
d="M723 68q0 -32 -21 -55t-53 -23t-54 23t-22 55t22 54t54 22t53 -22t21 -54zM473 68q0 -32 -21 -55t-53 -23t-54 23t-22 55t22 54t54 22t53 -22t21 -54zM223 68q0 -32 -21.5 -55t-53.5 -23t-53.5 23t-21.5 55t21.5 54t53.5 22t53.5 -22t21.5 -54z" />
    <glyph glyph-name="perthousand" unicode="&#x2030;" horiz-adv-x="1117" 
d="M1084 172q0 -182 -144 -182q-67 0 -106 40.5t-39 141.5q0 183 145 183q144 0 144 -183zM740 172q0 -182 -144 -182q-67 0 -105.5 40t-38.5 142q0 183 144 183t144 -183zM573 710l-280 -720h-92l280 720h92zM321 528q0 -183 -144 -183q-67 0 -105.5 40.5t-38.5 142.5
q0 182 144 182t144 -182zM995 172q0 70 -12.5 96t-42.5 26q-28 0 -41.5 -27t-13.5 -95q0 -65 12.5 -92t42.5 -27q29 0 42 26.5t13 92.5zM651 172q0 70 -12.5 96t-42.5 26q-28 0 -41.5 -27t-13.5 -95q0 -65 12.5 -92t42.5 -27q29 0 42 26.5t13 92.5zM232 528q0 70 -12.5 95.5
t-42.5 25.5q-28 0 -41.5 -26.5t-13.5 -94.5q0 -65 12.5 -92.5t42.5 -27.5q29 0 42 27t13 93z" />
    <glyph glyph-name="guilsinglleft" unicode="&#x2039;" horiz-adv-x="265" 
d="M220 91l-185 221v46l185 221v-154l-88 -88l88 -92v-154z" />
    <glyph glyph-name="guilsinglright" unicode="&#x203a;" horiz-adv-x="265" 
d="M230 312l-185 -221v154l88 92l-88 88v154l185 -221v-46z" />
    <glyph glyph-name="fraction" unicode="&#x2044;" horiz-adv-x="209" 
d="M329 810l-365 -920h-84l365 920h84z" />
    <glyph glyph-name="trademark" unicode="&#x2122;" horiz-adv-x="739" 
d="M679 280h-86l-1 268l-103 -189l-100 185l-3 -264h-88l14 345h-105v-345h-88v345h-99v75h357l112 -204l111 204h63z" />
    <glyph glyph-name="minus" unicode="&#x2212;" horiz-adv-x="505" 
d="M442 288h-379v94h379v-94z" />
    <glyph glyph-name="fi" unicode="&#xfb01;" horiz-adv-x="513" 
d="M446 0h-104v455h-166v-455h-104v455h-64v75h64v54q0 78 40.5 112t105.5 34q24 0 49 -4t39 -8l13 -5v-79q-53 15 -89 15q-54 0 -54 -62v-57h270v-530z" />
    <glyph glyph-name="fl" unicode="&#xfb02;" horiz-adv-x="514" 
d="M446 0h-104v621q-56 28 -100 28q-35 0 -50.5 -17t-15.5 -54v-48h85l-12 -75h-73v-455h-104v455h-64v75h64v44q0 156 160 156q27 0 56 -8.5t44 -17.5l16 -8l98 24v-720z" />
    </font>
</defs>
</svg>
